<?xml version="1.0" standalone="yes"?>
<svg xmlns="http://www.w3.org/2000/svg" width="120" height="120">
<path style="fill:#fcd121; stroke:none;" d="M70 0L70 12L72 12L72 0L70 0z"/>
<path style="fill:#fcd121; stroke:none;" d="M34 10C33.1534 15.9926 38.5652 20.4745 44 22C43.103 16.1871 39.0639 12.6272 34 10z"/>
<path style="fill:#fcd121; stroke:none;" d="M107 10L98 22L110 13L110 12L107 10z"/>
<path style="fill:#fcd121; stroke:none;" d="M41 47C54.048 47.1095 55.983 55.1785 65.598 60.9329C68.2472 62.5183 72.0569 60.898 75 61.3434C81.5962 62.3414 86.138 66.9457 90 72C125.967 46.1131 71.4823 -6.31108 45.7608 32.0147C42.7418 36.513 41.4359 41.6631 41 47z"/>
<path style="fill:#a3d5f7; stroke:none;" d="M20 79C2.20513 83.655 -9.67033 106.323 11 117.583C18.2722 121.544 28.0121 120 36 120L79 120C86.319 120 94.9789 121.253 102 118.895C116.986 113.862 122.801 95.422 112.471 83.0934C106.542 76.0174 100.367 78.5662 93.2245 75.3966C88.5178 73.308 87.0445 66.1756 81.9992 63.4174C76.9067 60.6335 70.9594 63.0948 66.3758 60.8025C58.7913 57.0093 57.0095 48.4351 47 47.1852C28.6552 44.8944 13.9445 61.1062 20 79z"/>
<path style="fill:#fcd121; stroke:none;" d="M108 48L108 50L120 50L120 48L108 48z"/>
</svg>
